<svg xmlns="http://www.w3.org/2000/svg" viewBox="0 0 420 420" role="img" aria-label="Krishnakumar R portrait">
  <defs>
    <linearGradient id="bgD" x1="0" y1="0" x2="1" y2="1">
      <stop offset="0%" stop-color="#b8d4ea"/>
      <stop offset="100%" stop-color="#7ea3c6"/>
    </linearGradient>
  </defs>
  <rect width="420" height="420" fill="url(#bgD)"/>
  <circle cx="210" cy="156" r="88" fill="#e3c0a3"/>
  <rect x="96" y="255" width="228" height="152" rx="70" fill="#eef4fb"/>
  <path d="M145 124c11-40 118-38 130 4-15-12-36-16-66-16-28 0-49 2-64 12z" fill="#2d3748"/>
  <rect x="152" y="144" width="42" height="25" rx="8" fill="none" stroke="#2d3748" stroke-width="5"/>
  <rect x="226" y="144" width="42" height="25" rx="8" fill="none" stroke="#2d3748" stroke-width="5"/>
  <line x1="194" y1="157" x2="226" y2="157" stroke="#2d3748" stroke-width="4"/>
  <circle cx="173" cy="157" r="5" fill="#2d3748"/>
  <circle cx="247" cy="157" r="5" fill="#2d3748"/>
  <path d="M170 191c24 12 56 12 80 0" stroke="#7f5740" stroke-width="7" fill="none" stroke-linecap="round"/>
  <rect x="175" y="181" width="70" height="20" rx="10" fill="#6b3f2b"/>
  <text x="210" y="390" text-anchor="middle" font-family="Arial, sans-serif" font-size="26" fill="#ffffff" opacity="0.9">KR</text>
</svg>
