<svg xmlns="http://www.w3.org/2000/svg" viewBox="0 0 420 420" role="img" aria-label="Murty B S portrait">
  <defs>
    <linearGradient id="bgC" x1="0" y1="0" x2="1" y2="1">
      <stop offset="0%" stop-color="#f0c9a9"/>
      <stop offset="100%" stop-color="#d98b62"/>
    </linearGradient>
  </defs>
  <rect width="420" height="420" fill="url(#bgC)"/>
  <circle cx="210" cy="155" r="86" fill="#e6bd97"/>
  <rect x="100" y="252" width="220" height="150" rx="68" fill="#f3f6fb"/>
  <path d="M135 128c18-38 132-38 150 12-15-10-36-16-75-16s-60 4-75 4z" fill="#1f2937"/>
  <rect x="156" y="145" width="40" height="25" rx="8" fill="none" stroke="#1f2937" stroke-width="5"/>
  <rect x="224" y="145" width="40" height="25" rx="8" fill="none" stroke="#1f2937" stroke-width="5"/>
  <line x1="196" y1="158" x2="224" y2="158" stroke="#1f2937" stroke-width="4"/>
  <circle cx="176" cy="157" r="5" fill="#1f2937"/>
  <circle cx="244" cy="157" r="5" fill="#1f2937"/>
  <rect x="192" y="172" width="36" height="24" rx="12" fill="#5f3b27"/>
  <path d="M174 188c20 9 52 9 72 0" stroke="#7f5138" stroke-width="7" fill="none" stroke-linecap="round"/>
  <text x="210" y="390" text-anchor="middle" font-family="Arial, sans-serif" font-size="26" fill="#ffffff" opacity="0.9">MBS</text>
</svg>
